<svg width="1458" height="244" viewBox="0 0 1458 244" fill="none" xmlns="http://www.w3.org/2000/svg">
<path fill-rule="evenodd" clip-rule="evenodd" d="M-17 103.6L65.625 99.2833C148.25 94.9667 313.5 86.3333 478.75 99.2833C644 112.233 809.25 146.767 974.5 172.667C1139.75 198.567 1305 215.833 1470.25 185.617C1635.5 155.4 1800.75 77.7 1883.38 38.85L1966 0V259H1883.38C1800.75 259 1635.5 259 1470.25 259C1305 259 1139.75 259 974.5 259C809.25 259 644 259 478.75 259C313.5 259 148.25 259 65.625 259H-17V103.6Z" fill="#0099FF"/>
</svg>
