<svg width="2068" height="364" viewBox="0 0 2068 364" fill="none" xmlns="http://www.w3.org/2000/svg">
<path fill-rule="evenodd" clip-rule="evenodd" d="M0 145.6L86.1667 139.533C172.333 133.467 344.667 121.333 517 139.533C689.333 157.733 861.667 206.267 1034 242.667C1206.33 279.067 1378.67 303.333 1551 260.867C1723.33 218.4 1895.67 109.2 1981.83 54.6L2068 0V364H1981.83C1895.67 364 1723.33 364 1551 364C1378.67 364 1206.33 364 1034 364C861.667 364 689.333 364 517 364C344.667 364 172.333 364 86.1667 364H0V145.6Z" fill="#0099FF"/>
</svg>
