<svg width="2068" height="449" viewBox="0 0 2068 449" fill="none" xmlns="http://www.w3.org/2000/svg">
<path fill-rule="evenodd" clip-rule="evenodd" d="M0 179.6L86.1667 172.117C172.333 164.633 344.667 149.667 517 172.117C689.333 194.567 861.667 254.433 1034 299.333C1206.33 344.233 1378.67 374.167 1551 321.783C1723.33 269.4 1895.67 134.7 1981.83 67.35L2068 0V449H1981.83C1895.67 449 1723.33 449 1551 449C1378.67 449 1206.33 449 1034 449C861.667 449 689.333 449 517 449C344.667 449 172.333 449 86.1667 449H0V179.6Z" fill="#0099FF"/>
</svg>
