<svg width="1983" height="302" viewBox="0 0 1983 302" fill="none" xmlns="http://www.w3.org/2000/svg">
<path fill-rule="evenodd" clip-rule="evenodd" d="M0 120.8L82.625 115.767C165.25 110.733 330.5 100.667 495.75 115.767C661 130.867 826.25 171.133 991.5 201.333C1156.75 231.533 1322 251.667 1487.25 216.433C1652.5 181.2 1817.75 90.6 1900.38 45.3L1983 0V302H1900.38C1817.75 302 1652.5 302 1487.25 302C1322 302 1156.75 302 991.5 302C826.25 302 661 302 495.75 302C330.5 302 165.25 302 82.625 302H0V120.8Z" fill="#0099FF"/>
</svg>
